# xmcd
#
# Track frame offsets: 
#        150
#        15866
#        41128
#        55098
#        69377
#        89653
#        102569
#        119475
#        137945
#        154992
#        175997
#        192464
#        203362
#
# Disc length: 2892 seconds
#
# Revision: 1
# Processed by: cddbd v1.5.2PL0 Copyright (c) Steve Scherf et al.
# Submitted via: ExactAudioCopy v1.0b3
#
DISCID=b80b4a0d
DTITLE=Robby Z - What'cha Want From Me
DYEAR=2004
DGENRE=Blues
TTITLE0=I Don't Know Why
TTITLE1=Woke Up This Morning
TTITLE2=Shooty-Bop
TTITLE3=Boom Boom
TTITLE4=Done Somebody Wrong
TTITLE5=Love Me Baby
TTITLE6=What'cha Want From Me
TTITLE7=I Ain't Superstitious
TTITLE8=Tearing Me Apart
TTITLE9=Whole Lotta Loving
TTITLE10=San Ho Say
TTITLE11=Keeps Me Going Strong
TTITLE12=Tuesday's Groove
EXTD=YEAR: 2004 ID3G: 0
EXTT0=
EXTT1=
EXTT2=
EXTT3=
EXTT4=
EXTT5=
EXTT6=
EXTT7=
EXTT8=
EXTT9=
EXTT10=
EXTT11=
EXTT12=
PLAYORDER=
